<svg xmlns="http://www.w3.org/2000/svg" viewBox="0 0 24 24"><path d="M17.8 16.1l1.1.6.6-1.1-1.1-.6-.6 1.1zm-13.4-.6l.6 1.1 1.2-.6-.6-1.1-1.2.6zm11.1-.7l1.1.6.6-1.1-1.1-.6-.6 1.1zm-8.8-.6l.6 1.1 1.1-.6-.6-1.1-1.1.6zm6.6-.7l1.1.6.6-1.1-1-.6-.7 1.1zM8.9 13l.6 1.1 1.1-.6-.6-1.1-1.1.6zm2.5-2.9h1.3V8.8h-1.3v1.3zm0-2.6h1.3V6.2h-1.3v1.3zm.1-2.6h1.3V3.6h-1.3v1.3zm1.1 7.4L20.3 8l-.1 8.9-7.6 4.3v-8.9zm-8.9 4.3l.1-8.8 7.6 4.5v8.9l-7.7-4.6zm.7-9.8l7.7-4.3L19.7 7 12 11.3 4.4 6.8zM12.1 1L2.6 6.4l-.1 11 9.5 5.7 9.6-5.4.1-11L12.1 1z" fill-rule="evenodd" clip-rule="evenodd"/></svg>