<svg xmlns="http://www.w3.org/2000/svg" viewBox="0 0 24 24"><path d="M12 3c-.5 0-.8.4-.8.8V6c0 .4.3.8.8.8s.8-.3.8-.8V3.8c0-.4-.3-.8-.8-.8zM6.1 5.4c-.4 0-.8.3-.8.7 0 .2.1.4.2.5l1.6 1.6c.3.3.8.3 1.1 0s.3-.8 0-1.1L6.7 5.6c-.2-.1-.3-.2-.6-.2zm11.7 0c-.2 0-.4.1-.5.2l-1.6 1.6c-.3.3-.3.8 0 1.1s.8.3 1 0l1.6-1.6c.3-.3.3-.8 0-1.1-.1-.1-.3-.2-.5-.2zM12 9c-1.7 0-3 1.3-3 3s1.3 3 3 3 3-1.3 3-3-1.3-3-3-3zm-8.2 2.2c-.5 0-.8.3-.8.8s.3.8.8.8H6c.4 0 .8-.3.8-.8s-.4-.8-.8-.8H3.8zm14.2 0c-.5 0-.8.3-.8.8s.3.8.8.8h2.2c.5 0 .8-.3.8-.8s-.3-.8-.8-.8H18zM7.7 15.5c-.2 0-.4.1-.5.2l-1.6 1.6c-.3.3-.3.8 0 1s.8.3 1.1 0l1.6-1.6c.3-.3.3-.7 0-1-.1-.2-.4-.2-.6-.2zm8.5 0c-.5 0-.8.4-.8.8 0 .2.1.4.2.5l1.6 1.6c.3.3.8.3 1 0s.3-.8 0-1l-1.6-1.6c0-.2-.2-.3-.4-.3zM12 17.2c-.5 0-.8.4-.8.8v2.2c0 .5.3.8.8.8s.8-.3.8-.8V18c0-.5-.3-.8-.8-.8z"/></svg>