<svg xmlns="http://www.w3.org/2000/svg" width="356" height="210" viewBox="0 0 356 210"><path fill="black" d="M227.42,210V144.3L243,123.6h.6L307,210h49L271,92.7,349.69,0H302.52L228,88.2h-.6V0H186.86V210ZM89.53,172.5h-49V117.6H89.83q13.22,0,20.88,7.05t7.66,19.95Q118.37,172.5,89.53,172.5ZM84.12,84.6H40.56V37.5H84.12q26.43,0,26.44,24,0,11.4-6.91,17.25T84.12,84.6ZM80.21,210q42.06,0,60.39-17.4,18.32-18,18.32-48,0-16.8-8.41-29.55A48.13,48.13,0,0,0,128.28,96.6v-.3q22.83-13.5,22.83-39.9,0-23.7-17.12-39.9Q117.46,0,89.23,0H0V210Z"/></svg>